<?xml version="1.0" encoding="UTF-8"?>
<!-- Created with Inkscape (http://www.inkscape.org/) -->
<svg width="366" height="192" version="1.1" viewBox="0 0 366 192" xmlns="http://www.w3.org/2000/svg">
 <g transform="translate(-395,-255)">
  <path d="m425 255c-16.62 0-30 13.38-30 30v132c0 16.62 13.38 30 30 30h306c16.62 0 30-13.38 30-30v-132c0-16.62-13.38-30-30-30zm-11.062 14h26.018v69.131c0 4.2618 0.86712 7.8289 2.6016 10.703 1.7344 2.8247 4.6318 4.2383 8.6953 4.2383 3.9644 0 6.8884-1.4383 8.7715-4.3125 1.8831-2.9238 2.8262-6.5649 2.8262-10.926v-68.834h25.793v69.131c0 4.7573 0.86712 8.499 2.6016 11.225 1.7344 2.676 4.7817 4.0137 9.1426 4.0137 4.1627 0 7.1359-1.5123 8.9199-4.5352 1.784-3.0229 2.6758-6.7893 2.6758-11.299v-68.535h26.018v68.834c0 8.1767-0.79313 14.172-2.3789 17.988-1.6353 4.4104-4.1627 8.2508-7.582 11.521-3.3698 3.2211-7.2595 5.6745-11.67 7.3594-4.4104 1.6353-8.9206 2.4531-13.529 2.4531-3.6175 0-7.1107-0.47055-10.48-1.4121-3.3698-0.94155-6.5176-2.3552-9.4414-4.2383-2.9238-1.8831-5.4511-4.2359-7.582-7.0606-2.8247 4.2122-6.5644 7.4075-11.223 9.5879-4.6087 2.1804-9.5154 3.2715-14.719 3.2715-3.3202 0-6.6407-0.44589-9.9609-1.3379-3.3202-0.84245-6.4168-2.0815-9.291-3.7168-2.8742-1.6849-5.4262-3.717-7.6562-6.0957-3.0229-3.2211-5.203-6.8395-6.541-10.854-1.338-4.0635-2.0078-8.919-2.0078-14.568zm128.23 0h25.869v30.924c0 9.6633 3.6658 14.494 11 14.494 3.7662 0 6.5175-1.2637 8.252-3.791 1.784-2.5769 2.6758-5.848 2.6758-9.8125v-31.814h26.092v33.078c0 11.249-2.6526 19.824-7.9551 25.721-2.1309 2.23-4.3604 3.9642-6.6894 5.2031-2.3291 1.2389-5.5243 2.4039-9.5879 3.4941v38.504h-26.018v-38.504c-4.3609-1.0902-7.8047-2.4052-10.332-3.9414-2.5273-1.5858-4.8327-3.8399-6.9141-6.7637-4.2618-5.2529-6.3926-13.057-6.3926-23.414zm114.02 0h15.812v23.787h-6.2227c-5.5502 0-9.8858 0.7438-13.008 2.2305-3.1716 1.4867-5.105 4.5833-5.7988 9.291v34.416c0 7.582-1.387 14.1-4.1621 19.551-2.7751 5.4511-6.8148 9.6141-12.117 12.488-5.2529 2.8247-11.545 4.2363-18.879 4.2363h-15.812v-23.787h6.2227c5.5502 0 9.8858-0.7438 13.008-2.2305 3.1715-1.4867 5.105-4.5833 5.7988-9.291v-34.416c0-7.582 1.387-14.1 4.1621-19.551 2.7751-5.4511 6.8128-9.6121 12.115-12.486 5.2529-2.8247 11.547-4.2383 18.881-4.2383zm63.791 0h17.021v22.375h-10.035c-4.6087 0-8.9442 0.76847-13.008 2.3047-4.014 1.4867-7.5071 3.7654-10.48 6.8379-2.9733 3.0229-5.1308 6.7399-6.4688 11.15h39.992v20.367h-39.992c1.8336 6.9873 5.1047 12.165 9.8125 15.535 4.7078 3.3202 11.125 5.0052 19.252 5.0547h10.928v22.375h-15.164c-6.0953 0-11.547-0.56922-16.354-1.709-4.7573-1.1398-9.1176-2.95-13.082-5.4277-3.9644-2.4778-7.6568-5.6977-11.076-9.6621-4.46-5.0051-7.8545-10.631-10.184-16.875-2.2795-6.2936-3.4199-12.686-3.4199-19.178 0-7.3342 1.4383-14.421 4.3125-21.26 2.8742-6.8882 7.0372-12.983 12.488-18.285 4.7078-4.5096 10.058-7.904 16.055-10.184 5.9962-2.2796 12.465-3.4199 19.402-3.4199zm-135.9 115.12c3.6648 0 7.0469 0.9111 10.146 2.7344 3.0996 1.8233 5.5524 4.3034 7.3574 7.4394 1.805 3.1178 2.707 6.5181 2.707 10.201 0 3.6466-0.9111 7.0287-2.7344 10.146-1.805 3.1178-4.267 5.5797-7.3848 7.3848-3.1178 1.8415-6.4817 2.7617-10.092 2.7617-3.6101 0-6.9558-0.92021-10.037-2.7617-3.0813-1.805-5.5231-4.267-7.3281-7.3848-1.805-3.1178-2.709-6.4999-2.709-10.146 0-2.7714 0.51932-5.3973 1.5586-7.877 1.0393-2.4797 2.4808-4.6572 4.3223-6.5352 1.8597-1.878 4.0119-3.3377 6.4551-4.377 2.4614-1.0575 5.0398-1.5859 7.7383-1.5859zm65.076 0c3.6648 0 7.0469 0.9111 10.146 2.7344 3.0996 1.8233 5.5524 4.3034 7.3574 7.4394 1.805 3.1178 2.707 6.5181 2.707 10.201 0 3.6466-0.91109 7.0287-2.7344 10.146-1.805 3.1178-4.267 5.5797-7.3848 7.3848-3.1178 1.8415-6.4817 2.7617-10.092 2.7617-3.6101 0-6.9558-0.92021-10.037-2.7617-3.0813-1.805-5.525-4.267-7.3301-7.3848-1.805-3.1178-2.707-6.4999-2.707-10.146 0-2.7714 0.51933-5.3973 1.5586-7.877 1.0393-2.4797 2.4788-4.6572 4.3203-6.5352 1.8597-1.878 4.0119-3.3377 6.4551-4.377 2.4614-1.0575 5.0418-1.5859 7.7402-1.5859zm41.996 0c1.8598 0 3.693 0.25512 5.498 0.76562 1.805 0.49229 3.5452 1.2303 5.2227 2.2148s3.2191 2.1527 4.623 3.502l-6.7832 6.207c-2.7896-2.3156-5.6068-3.4726-8.4512-3.4726-2.0238 0-3.848 0.48288-5.4707 1.4492-1.6227 0.96632-2.8983 2.3148-3.8281 4.0469-0.92987 1.7139-1.3945 3.62-1.3945 5.7168 0 2.1515 0.45555 4.094 1.3672 5.8262 0.92987 1.7139 2.2054 3.0623 3.8281 4.0469 1.641 0.96634 3.4742 1.4492 5.498 1.4492 2.4614 0 4.5771-0.70154 6.3457-2.1055 1.7504-1.3674 2.789-3.1552 3.1172-5.3613h-11.24v-7.6016h21.387c0 4.6129-0.30066 8.0132-0.90234 10.201-0.63815 2.0238-1.5766 3.8734-2.8164 5.5508-1.2398 1.6592-2.7086 3.1098-4.4043 4.3496-1.6956 1.2398-3.5543 2.1874-5.5781 2.8438-2.0238 0.69284-4.0849 1.0391-6.1816 1.0391-3.6466 0-7.0196-0.90198-10.119-2.707-3.0813-1.8233-5.525-4.2943-7.3301-7.4121-1.805-3.1178-2.707-6.509-2.707-10.174 0-3.7013 0.89287-7.1198 2.6797-10.256 1.805-3.136 4.267-5.6071 7.3848-7.4121 3.1178-1.805 6.5364-2.707 10.256-2.707zm-154.37 0.21875c2.9719 0 5.195 1.476 6.6719 4.4297l8.5606 17.969v-21.742h9.5449v32.709c0 1.9874-0.45555 3.6111-1.3672 4.8691-0.89341 1.2581-2.3056 1.8867-4.2383 1.8867-1.3675 0-2.6176-0.38265-3.748-1.1484-1.1304-0.72932-2.0506-1.7498-2.7617-3.0625l-9.2441-18.898v22.645h-9.4629v-32.928c0-1.9691 0.51932-3.5837 1.5586-4.8418 1.0575-1.2581 2.5537-1.8867 4.4863-1.8867zm-117.77 0.65625h25.326v8.6152l-7.8496 0.0274v30.357h-9.5723v-30.357h-7.9043zm43.746 0h6.2637v8.2324h-3.6914c-1.6956 0-3.292 0.28245-4.7871 0.84766-1.4769 0.54698-2.7615 1.3852-3.8555 2.5156-1.094 1.1122-1.8866 2.4808-2.3789 4.1035h14.713v7.4922h-14.713c0.6746 2.5708 1.8772 4.477 3.6094 5.7168 1.7321 1.2216 4.0938 1.8411 7.084 1.8594h4.0195v8.2324h-5.5801c-2.2426 0-4.247-0.20955-6.0156-0.62891-1.7503-0.41935-3.3558-1.0844-4.8144-1.9961-1.4586-0.91165-2.8162-2.098-4.0742-3.5566-1.641-1.8415-2.8892-3.9097-3.7461-6.207-0.83872-2.3156-1.2598-4.6682-1.2598-7.0566 0-2.6985 0.53039-5.3061 1.5879-7.8223 1.0575-2.5344 2.5882-4.7756 4.5938-6.7266 1.7321-1.6592 3.702-2.9093 5.9082-3.748 2.2062-0.83871 4.5841-1.2578 7.1367-1.2578zm26.982 0h5.8262v9.0801h-3.0098c-2.1332 0-4.1103 0.4191-5.9336 1.2578-1.805 0.83871-3.2465 2.0596-4.3223 3.6641-1.0575 1.6045-1.5859 3.4924-1.5859 5.6621 1e-5 3.4642 1.3777 6.2997 4.1309 8.5059 1.0575 0.80225 2.1508 1.3489 3.2812 1.6406 1.1487 0.29172 2.734 0.4375 4.7578 0.4375h2.6816v8.752h-5.3613c-3.6101 0-6.9102-0.84732-9.9004-2.543-2.9902-1.6956-5.361-4.03-7.1113-7.002-1.7503-2.9902-2.625-6.3085-2.625-9.9551 0-3.5189 0.85643-6.7735 2.5703-9.7637 1.7321-2.9902 4.0665-5.361 7.002-7.1113 2.9355-1.7504 6.1354-2.625 9.5996-2.625zm8.4394 0h9.6543v14.633h9.8457v-14.633h9.5723v39h-9.5723v-16.246h-9.8457v16.246h-9.6543zm108.24 0h9.4629v23.656c0 2.6802 0.52844 4.4679 1.5859 5.3613 0.38289 0.49228 0.90223 0.82027 1.5586 0.98437 0.67462 0.1641 1.7588 0.2461 3.2539 0.2461h5.3066v8.752h-8.6699c-4.23 0-7.3479-1.0842-9.3535-3.2539-2.0968-2.1332-3.1445-5.3787-3.1445-9.7363zm105.85 0h9.5176v11.377c0 3.5554 1.3504 5.334 4.0488 5.334 1.3857 0 2.397-0.46466 3.0352-1.3945 0.65638-0.94811 0.98437-2.1527 0.98437-3.6113v-11.705h9.5996v12.17c0 4.1388-0.97487 7.2932-2.9258 9.4629-0.78401 0.82048-1.606 1.4582-2.4629 1.9141-0.85694 0.4558-2.0322 0.88598-3.5273 1.2871v14.166h-9.5723v-14.166c-1.6045-0.40112-2.8709-0.88595-3.8008-1.4512-0.92987-0.58345-1.7792-1.4126-2.5449-2.4883-1.568-1.9327-2.3516-4.8046-2.3516-8.6152zm-128.19 8.5332c-1.8598 0-3.5817 0.48288-5.168 1.4492s-2.8455 2.2783-3.7754 3.9375c-0.91164 1.641-1.3672 3.4469-1.3672 5.416 0 1.9327 0.46466 3.7204 1.3945 5.3613 0.92988 1.6227 2.18 2.9165 3.748 3.8828 1.5862 0.96634 3.3082 1.4492 5.168 1.4492 1.8962 0 3.6384-0.47377 5.2246-1.4219 1.6045-0.96634 2.88-2.2783 3.8281-3.9375 0.91164-1.641 1.3672-3.4195 1.3672-5.334 0-1.9509-0.46466-3.7568-1.3945-5.416-0.92987-1.6774-2.1963-2.9894-3.8008-3.9375-1.5862-0.96634-3.3284-1.4492-5.2246-1.4492zm65.076 0c-1.8597 0-3.5837 0.48288-5.1699 1.4492s-2.8436 2.2783-3.7734 3.9375c-0.91164 1.641-1.3672 3.4469-1.3672 5.416 0 1.9327 0.46466 3.7204 1.3945 5.3613 0.92986 1.6227 2.1781 2.9165 3.7461 3.8828 1.5862 0.96634 3.3102 1.4492 5.1699 1.4492 1.8962 0 3.6364-0.47377 5.2227-1.4219 1.6045-0.96634 2.882-2.2783 3.8301-3.9375 0.91165-1.641 1.3672-3.4195 1.3672-5.334 0-1.9509-0.46466-3.7568-1.3945-5.416-0.92988-1.6774-2.1982-2.9894-3.8027-3.9375-1.5862-0.96634-3.3264-1.4492-5.2227-1.4492z" stroke-linecap="round" stroke-linejoin="round" stroke-miterlimit="9" stroke-width="9.2254" style="paint-order:fill markers stroke"/>
 </g>
</svg>
